<svg xmlns="http://www.w3.org/2000/svg" version="1.1" viewBox="-5.0 -10.0 110.0 135.0">
 <path d="m26.996 81.992c0.41406 0.34375 0.46875 0.95312 0.125 1.3672s-0.95703 0.46875-1.3672 0.125c-13.09-10.883-17.367-29.047-10.574-44.59 0.21094-0.49219 0.78516-0.71875 1.2812-0.50391 0.49219 0.21094 0.71875 0.78906 0.50391 1.2812-6.4375 14.738-2.3828 31.992 10.031 42.32zm55.379-44.324c-0.24219-0.48438-0.046875-1.0703 0.42969-1.3125 0.48437-0.23828 1.0625-0.046875 1.3047 0.42969 8.0117 15.855 4.0859 35.266-9.6484 46.699-0.41406 0.34375-1.0312 0.28125-1.375-0.125-0.34375-0.41406-0.28125-1.0312 0.125-1.375 13.043-10.844 16.77-29.289 9.1641-44.316zm2.2188-29.668h-5.1211v9.5391h5.1211zm-13.102 25.289h17.93c1.4375 0 2.6172-1.1797 2.6172-2.6172l0.007813-20.062c0-1.4336-1.1797-2.6133-2.6172-2.6133h-2.8789v10.52c0 0.53906-0.4375 0.97656-0.97656 0.97656h-7.0742c-0.54297 0-0.98047-0.4375-0.98047-0.97656l-0.003906-10.516h-6.0234zm-5.4961 0h3.5508v-25.289h-3.5508c-1.4336 0-2.6133 1.1797-2.6133 2.6133v20.059c0 1.4375 1.1797 2.6172 2.6133 2.6172zm-9.1055 58.812h8.7969c2.0977 0 3.8086-1.7148 3.8086-3.8125v-11.742c0-4.4062-2.1406-7.7812-5.4062-10.117l-3.8086 3.6094zm-3.6406-14.887 0.47656 14.887h1.1875l3.0547-19.867zm-6.7656 14.887 0.47656-14.887-4.7109-4.9766 3.0508 19.867zm-0.003906-18.422 2.2031 2.5469c0.17188 0.19922 0.25 0.44922 0.23828 0.69141l-0.48828 15.18h3.3438l-0.48438-15.18c-0.015625-0.24219 0.0625-0.49219 0.23438-0.69141l2.2031-2.5469-3.6211-4.3438zm2.1992-5.6641c-3.0234-0.34375-5.8047-1.7656-7.8672-4-1.0469 0.375-2.043 0.82422-2.9766 1.3398 2.4297 2.3086 4.8594 4.6172 7.2891 6.9219zm10.727-4c-2.0625 2.2305-4.8516 3.6562-7.875 4l3.5625 4.2656c2.4297-2.3047 4.8594-4.6094 7.2852-6.9219-0.92578-0.51953-1.9258-0.96875-2.9727-1.3438zm1.4375-12.324c-3.6562-0.078125-6.1328-0.61719-7.6094-4.2734-3.4375 3.8438-8.9961 4.4531-13.863 4.1719v3.8125c0 2.9531 1.2109 5.6367 3.1562 7.5781 4.207 4.207 10.957 4.207 15.156 0 1.9492-1.9414 3.1562-4.6289 3.1562-7.5781zm-21.469-2.0547c5.2188 0.31641 10.234-0.26562 13.41-4.8203 0.53906-0.76953 1.5312-0.46094 1.7852 0.4375 1.0781 3.8672 2.4453 4.4062 6.2734 4.4961-0.007812-2.9375-1.2109-5.6133-3.1562-7.5508-4.2031-4.207-10.953-4.207-15.156 0-1.9219 1.9102-3.1211 4.543-3.1562 7.4375zm-4.8438 42.465h8.7969l-3.3906-22.062-3.8047-3.6094c-3.2734 2.3359-5.4141 5.7109-5.4141 10.117v11.742c0 2.0938 1.7188 3.8125 3.8125 3.8125zm-4.8281-68.07c0 3.3711-2.7266 6.1094-6.1094 6.1094-3.3711 0-6.1016-2.7344-6.1016-6.1094 0-3.3711 2.7266-6.1094 6.1016-6.1094 3.3828 0 6.1094 2.7383 6.1094 6.1094zm1.7656 0c0-4.3398-3.5234-7.8594-7.8672-7.8594-4.3398 0-7.8594 3.5234-7.8594 7.8594 0 4.3398 3.5234 7.8594 7.8594 7.8594 4.3438 0 7.8672-3.5195 7.8672-7.8594zm4.9375 2.2969c-0.09375 0.37109 0.066406 0.76953 0.41016 0.96875l2.1719 1.25c0.25 0.14453 0.33203 0.54297 0.20312 0.76562l-3.0156 5.2188c-0.1875 0.28125-0.46875 0.42969-0.78906 0.25l-2.0039-1.1562c-0.32812-0.21875-0.77344-0.20312-1.0859 0.070312-1.25 1.1289-2.6914 1.9922-4.2812 2.5703-0.36719 0.10547-0.63281 0.44531-0.63281 0.83984v2.5c0 0.30469-0.25391 0.55469-0.55469 0.55469h-6.4492c-0.29688 0-0.55469-0.25-0.55469-0.55469v-2.4961c0-0.39844-0.26562-0.73438-0.63281-0.83984-1.5898-0.57812-3.0312-1.4375-4.2812-2.5703-0.3125-0.27734-0.75781-0.29297-1.0859-0.070313l-2.0039 1.1562c-0.32031 0.18359-0.60156 0.03125-0.78906-0.25l-3.0156-5.2188c-0.125-0.21875-0.046875-0.61719 0.20312-0.76562l2.1719-1.25c0.34375-0.19922 0.50391-0.59766 0.41016-0.96875-0.26562-1.5-0.26562-3.0938 0-4.5938 0.09375-0.37109-0.066406-0.76953-0.41016-0.96875l-2.1719-1.25c-0.25-0.14453-0.33203-0.53906-0.20312-0.75781l3.0156-5.2266c0.1875-0.27734 0.46875-0.42969 0.78906-0.25l2.0039 1.1562c0.32812 0.21875 0.77344 0.20312 1.0859-0.070312 1.25-1.125 2.6914-1.9922 4.2812-2.5625 0.36719-0.10938 0.63281-0.44922 0.63281-0.84766l0.003906-2.5078c0-0.30469 0.25391-0.55469 0.55469-0.55469h6.4492c0.29688 0 0.55469 0.25 0.55469 0.55469v2.5c0 0.39844 0.26562 0.73438 0.63281 0.84766 1.5898 0.57031 3.0312 1.4375 4.2812 2.5625 0.3125 0.27734 0.75781 0.29297 1.0859 0.070313l2.0039-1.1562c0.32031-0.18359 0.60156-0.027344 0.78906 0.25l3.0156 5.2266c0.125 0.21875 0.046876 0.61719-0.20312 0.75781l-2.1719 1.25c-0.34375 0.19922-0.50391 0.59766-0.41016 0.96875 0.26172 1.5039 0.26172 3.0977-0.003906 4.5977zm6.8438-7.6719c-1.2578 0.24219-1.625-1.6719-0.36719-1.9141 5.1484-0.98438 10.719-0.91016 15.824 0.22656 1.25 0.27734 0.82812 2.1758-0.42188 1.8984-4.8516-1.0781-10.148-1.1484-15.035-0.21094z"/></svg>
